<?xml version="1.0" encoding="UTF-8"?>
<svg width="120px" height="47px" viewBox="0 0 120 47" version="1.1" xmlns="http://www.w3.org/2000/svg" xmlns:xlink="http://www.w3.org/1999/xlink">
    <!-- Generator: Sketch 51.2 (57519) - http://www.bohemiancoding.com/sketch -->
    <title>Group 6</title>
    <desc>Created with Sketch.</desc>
    <defs>
        <path d="M1.86364812,11.4621624 C2.63331894,11.7600984 3.42891068,12.0050789 4.23125671,12.2018509 C5.24627448,12.45084 6.27946871,12.6254594 7.30304427,12.8402701 C8.2987186,13.0491734 9.13572015,13.5380795 9.80174268,14.3016085 C10.0068468,14.5367434 10.1729457,14.8054589 10.3997626,15.1179172 C10.6987902,14.5766886 10.9727456,14.0777258 11.2501313,13.5801696 C11.4108904,13.2914815 11.564082,12.9972728 11.7483221,12.7236345 C11.8084741,12.6340392 11.9503142,12.5635725 12.0630861,12.5493315 C13.5724048,12.360647 14.9818943,11.8966362 16.261072,11.0685479 C16.5583669,10.8759954 16.8399607,10.6594969 17.2084408,10.3970404 C17.2857085,10.8292287 17.4054115,11.2246364 17.4189554,11.6235253 C17.5185016,14.5462023 14.7790888,17.7304918 12.0387212,18.34929 C11.7088218,18.42373 11.6070831,18.5937782 11.6331455,18.9323978 C11.9833784,23.5038671 12.3908637,30.5296072 16.7884371,33.3602626 C17.5138691,33.8270512 18.3422775,33.9444604 19.1962178,33.7526111 C20.0209838,33.5674077 20.8424611,33.3681391 21.6670504,33.1817753 C22.1191281,33.0796971 22.5708168,32.9666481 23.0287294,32.9014911 C24.6142548,32.6754986 25.9386262,33.2058971 27.1112558,34.2605405 C31.7861795,38.1221394 27.1528425,23.4607924 25.8213279,25.4081536 C24.088764,25.9656276 22.3053838,26.1343748 20.5062672,25.9865496 C18.8554975,25.8506798 17.297555,25.3595936 15.8360468,24.3936664 C16.1692349,24.1634895 16.4678735,23.9460064 16.7771917,23.7460697 C17.9385053,22.9948125 19.080334,22.2238289 20.0290112,21.2007619 C21.8327603,19.2554401 22.3784787,16.5033036 22.3586048,13.9327137 C22.3257528,9.69522242 21.6980281,4.32179096 25.824652,1.59725743 C28.0514106,0.126987566 30.5873107,0.983768845 33.6740213,1.59328402 C33.9177062,1.64142214 34.048407,1.75556119 34.1111759,1.99477497 C34.3840351,3.03658388 34.6391422,4.08444081 34.956417,5.11299327 C35.3305906,6.32674916 35.8162629,7.49521514 36.7405044,8.41908739 C36.8831225,8.56174362 36.8990711,8.62711161 36.761227,8.80883391 C36.1105873,9.66631845 35.9335613,10.6803134 35.8736213,11.7220168 C35.8535707,12.0673877 35.8413351,12.4142705 35.852439,12.7597468 C35.8615626,13.0497008 35.7398793,13.1652112 35.4559162,13.1814565 C34.5704677,13.2314934 33.6866458,13.3115244 32.8006315,13.3460193 C32.4553847,13.359557 32.3446285,13.4783728 32.3506401,13.8155858 C32.3665887,14.7229314 32.3579602,15.6306639 32.3566518,16.6109727 L32.4555453,16.7661684 C33.1820736,18.2528945 34.8111821,18.4432103 36.7405044,18.9323978 C40.7662736,19.953566 40.3803243,22.5040076 38.9053782,24.9560983 C40.0722791,29.0623965 39.3161876,33.3849118 38.9053782,35.4555545 C37.7918044,41.0693249 35.8353235,45.6630172 25.6957546,46.4244365 C19.642001,46.879129 13.3280126,44.8736786 9.91561082,39.7489197 C8.92852964,38.2668702 8.25472731,36.6456457 7.83019718,34.9299382 C7.36227692,33.0390135 7.3300968,31.1116249 7.49177541,29.1777311 C7.61207957,27.7394243 7.92702046,26.3376168 8.32821115,24.9560983 C8.54151942,24.2222117 10.6482568,18.5950793 9.78190416,18.4827335 C6.12129102,18.0072948 2.7122133,17.946709 1.29497931,13.8042281 C0.960801079,12.8275059 0.808635053,11.7892836 0.573755494,10.7789104 C1.06625288,10.9788472 1.43533417,11.2962986 1.86364812,11.4621624 Z" id="path-1"></path>
        <filter x="-22.9%" y="-19.7%" width="140.6%" height="135.0%" filterUnits="objectBoundingBox" id="filter-2">
            <feOffset dx="-1" dy="-1" in="SourceAlpha" result="shadowOffsetOuter1"></feOffset>
            <feGaussianBlur stdDeviation="2.5" in="shadowOffsetOuter1" result="shadowBlurOuter1"></feGaussianBlur>
            <feColorMatrix values="0 0 0 0 0.5090422   0 0 0 0 0.613181151   0 0 0 0 0.689865009  0 0 0 0 0" type="matrix" in="shadowBlurOuter1"></feColorMatrix>
        </filter>
    </defs>
    <g id="Page-1" stroke="none" stroke-width="1" fill="none" fill-rule="evenodd">
        <g id="page-header" transform="translate(-351.000000, -20.000000)">
            <g id="Group-6" transform="translate(350.700000, 18.500000)">
                <g id="Group-2" transform="translate(0.000000, 0.656100)">
                    <g id="Group" transform="translate(0.000000, 0.680400)">
                        <g id="Group-12">
                            <path d="M105.203374,18.1514083 C106.199782,17.5593278 107.120025,16.9824482 108.06963,16.4583323 C108.733216,16.0919672 109.418783,15.7507638 110.126711,15.4831455 C111.13046,15.1036195 112.162131,15.2984328 113.17178,15.5118475 C113.90373,15.6665181 114.563235,15.9902002 115.106112,16.5257569 C115.535362,16.949266 115.805,17.4659014 116.002714,18.0246997 C116.357458,19.0268083 116.412222,20.0675396 116.412222,21.1196717 C116.412002,23.5138558 116.428943,25.9079999 116.441424,28.3022439 C116.442444,28.5035177 116.454125,28.7053516 116.473186,28.9055053 C116.53441,29.5479293 116.768746,29.7732447 117.424711,29.7930861 C117.910264,29.8077671 118.396558,29.7928061 118.882571,29.7987465 C119.239576,29.8031668 119.349963,29.9204348 119.349123,30.2696188 C119.348383,30.6135423 119.239296,30.7230898 118.879051,30.7233098 C116.200247,30.7244899 113.521364,30.7243899 110.84256,30.7235899 C110.500337,30.7233699 110.347266,30.5705594 110.346926,30.2391167 C110.346466,29.9103341 110.465414,29.8009066 110.83984,29.7980264 C111.314052,29.7945062 111.789965,29.8232482 112.261737,29.7899059 C112.986667,29.7388824 113.244925,29.5152071 113.249785,28.8298601 C113.269466,26.0333485 113.32395,23.2368368 113.330931,20.4403252 C113.333771,19.3916533 113.090694,18.3904447 112.214334,17.6980773 C111.901213,17.4506403 111.506766,17.2785685 111.122819,17.15384 C110.286302,16.8821414 109.459105,17.0113102 108.691313,17.4058573 C107.569176,17.9826968 106.470281,18.6046594 105.353804,19.1927597 C105.116408,19.3177883 105.056484,19.4893 105.054443,19.7322967 C105.042763,21.1068509 104.992239,22.4816251 105.013501,23.8555192 C105.040163,25.5491553 105.135749,27.2416713 105.177312,28.9350873 C105.191593,29.5176472 105.478813,29.7397825 106.124317,29.7884258 C106.619391,29.8256883 107.119745,29.8072071 107.617199,29.7938862 C107.945922,29.7849856 108.06335,29.9412363 108.056829,30.2465372 C108.049449,30.5958011 107.938441,30.7230898 107.603758,30.7233098 C104.913154,30.7246699 102.222369,30.7246699 99.531725,30.7233098 C99.2140433,30.7230898 99.0413514,30.5575785 99.0568325,30.257998 C99.0712935,29.9776388 99.1822411,29.7867857 99.5125037,29.7946662 C99.9745754,29.805907 100.437047,29.8006266 100.899419,29.7958663 C101.606647,29.7887258 101.883266,29.5884721 101.969452,28.8978448 C102.064879,28.1350525 102.131503,27.3638596 102.138524,26.595547 C102.159845,24.2372454 102.161885,21.8783237 102.138064,19.5200221 C102.130983,18.8363753 101.997294,18.1550486 101.948811,17.4707217 C101.915188,16.9949091 101.510381,16.7348513 101.081071,16.7278708 C100.559755,16.7195902 100.03796,16.7283308 99.516524,16.7223104 C99.194942,16.7185702 99.0592727,16.555799 99.0541523,16.190554 C99.049792,15.8608714 99.1858213,15.7260421 99.5181041,15.7154414 C101.139755,15.6635579 102.761626,15.6112943 104.383097,15.5549304 C104.995979,15.533729 105.197253,15.7162815 105.202354,16.3349639 C105.207074,16.9243243 105.203374,17.5136846 105.203374,18.1514083" id="Fill-2" fill="#00BDBA"></path>
                            <path d="M92.4312385,21.2217787 C90.8078872,21.2217787 89.184376,21.2213187 87.5608647,21.2221188 C87.0862522,21.2223988 87.0811118,21.2482006 87.0443693,21.7245532 C86.9131003,23.4205894 87.5487439,24.844307 88.5530127,26.1570569 C89.1516137,26.9397706 89.8351006,27.632318 90.6942194,28.1010302 C91.2622584,28.4110514 91.8902414,28.6571083 92.5212646,28.7932976 C93.1782097,28.9350273 93.8755374,28.9838507 94.5470435,28.9421878 C95.8161504,28.8634224 96.962849,28.4335529 97.8580303,27.4722671 C98.1788123,27.1277635 98.5411772,27.1199429 98.7667726,27.4748072 C98.8328772,27.5790744 98.8415977,27.8102302 98.7708529,27.8977162 C97.765844,29.1398813 96.5380799,30.0605844 95.008055,30.594721 C93.3796035,31.16316 91.7273502,31.1400784 90.0853577,30.8288771 C88.3270772,30.4955542 86.7709706,29.7141607 85.6033506,28.2938434 C84.9075829,27.4475854 84.4733931,26.4799991 84.2216559,25.4146261 C83.9567777,24.2926492 83.901554,23.166872 84.077486,22.0329943 C84.2552182,20.8869158 84.7260905,19.8590654 85.4364391,18.9464228 C86.2201128,17.9394338 87.1626974,17.1069968 88.2666331,16.4632727 C89.8600423,15.534009 91.5753998,15.2149671 93.4041051,15.4199412 C94.4336557,15.5354291 95.4186032,15.7770656 96.2820223,16.365926 C97.3015522,17.0610736 98.0602042,17.9394338 98.2499172,19.226622 C98.3183019,19.6907938 98.3731256,20.1300839 98.2333561,20.5884153 C98.129609,20.9293987 97.9283352,21.1401932 97.5841916,21.1916767 C97.3631764,21.2247189 97.1354208,21.2201786 96.9108054,21.2204787 C95.4175631,21.2228588 93.9244608,21.2217787 92.4312385,21.2217787 Z M87.2885061,20.2311109 C87.5027607,20.2512922 87.5721455,20.2633131 87.6416103,20.2633131 C89.5470808,20.2641131 91.4527114,20.2752739 93.357942,20.2532724 C93.7402482,20.2490321 94.1333351,20.1537856 94.4978401,20.0305171 C94.6982138,19.9625925 94.9480709,19.7790599 95.0045948,19.5952673 C95.2014483,18.9546434 95.0527781,17.9053515 94.4355358,17.3500134 C93.7646898,16.7467521 92.949954,16.5174764 92.102856,16.526037 C90.2708704,16.5445182 88.8413125,17.3505735 87.9023081,18.9476629 C87.6759126,19.3326293 87.5136415,19.7551982 87.2885061,20.2311109 Z" id="Fill-3" fill="#00BDBA"></path>
                            <path d="M76.7346828,18.2107124 C77.4571523,17.7431404 78.0808751,17.3109507 78.7320997,16.9254043 C79.5751175,16.4263701 80.4216755,15.9264159 81.3009758,15.4974465 C82.1379331,15.0892785 82.6463879,15.2327883 83.2251476,15.9625183 C83.5713913,16.3990883 83.887093,16.8656402 84.1620118,17.3496134 C84.2510179,17.5060441 84.2430374,17.8073248 84.1481109,17.9617153 C83.8256888,18.4864913 83.4431025,18.9743647 83.0864181,19.4783993 C82.9119061,19.7249762 82.7083122,19.7608786 82.4452342,19.6109084 C81.6328185,19.1478566 80.8045417,18.7115267 80.0034068,18.2293137 C79.5748375,17.971296 79.1559088,17.9528147 78.7397602,18.1672894 C78.0636539,18.5154733 77.4019886,18.8933592 76.7493638,19.284226 C76.6522972,19.34245 76.5929331,19.5390634 76.5924131,19.6719725 C76.5861927,21.9706901 76.5817724,24.2695676 76.6006337,26.5682851 C76.6071141,27.3600594 76.6671382,28.1523937 76.7232221,28.9429678 C76.765905,29.5462892 77.0214425,29.7745448 77.6488055,29.7929661 C78.1106971,29.806627 78.5733488,29.7955263 79.0356005,29.7975064 C79.495572,29.7993865 79.5723973,29.8657111 79.5688971,30.2516575 C79.5654368,30.6276033 79.4607697,30.7238699 79.0481214,30.7238699 C76.4048202,30.7243899 73.7613791,30.7243899 71.118058,30.7238699 C70.7421722,30.7237099 70.593962,30.5979613 70.5877216,30.2807395 C70.5808611,29.9246151 70.7154504,29.8107073 71.1218582,29.7954663 C71.7224594,29.7726647 72.3240006,29.7531034 72.9223816,29.7009598 C73.2262224,29.674538 73.410535,29.4625435 73.4418372,29.1559224 C73.5283031,28.3104645 73.6615923,27.4646065 73.672933,26.6174885 C73.7047952,24.2353253 73.701215,21.852362 73.6748132,19.4701787 C73.6670326,18.789192 73.5588652,18.1055452 73.4497777,17.430799 C73.3690322,16.9314647 73.1048341,16.7401116 72.5975593,16.7285508 C72.0882644,16.71693 71.5782695,16.7274708 71.0685746,16.7228905 C70.7130102,16.7196502 70.5880016,16.5750803 70.5860215,16.1823334 C70.5841414,15.84131 70.7047896,15.7262622 71.0538736,15.7152214 C72.6519431,15.665098 74.2501726,15.6153746 75.8480421,15.5582706 C76.5347091,15.533729 76.7333227,15.7176416 76.7343828,16.4172895 C76.7354629,16.9828483 76.7346828,17.548447 76.7346828,18.2107124" id="Fill-4" fill="#00BDBA"></path>
                            <path d="M54.4199537,30.9370645 C53.2724551,30.9321842 52.2036218,30.6861073 51.2185543,30.0922066 C50.9399552,29.9242751 50.7095394,29.7637641 50.6578959,29.3909385 C50.556629,28.6583483 50.4043985,27.9327986 50.266049,27.2058488 C50.2247862,26.9886939 50.3067718,26.8475643 50.5124059,26.8178022 C50.7796642,26.7790796 51.0557832,26.7485775 51.3214614,26.7765394 C51.4170679,26.7866201 51.5310157,26.9641923 51.5720185,27.0867807 C51.7236689,27.5404117 51.8000542,28.0243049 51.9931074,28.4575346 C52.396335,29.3629166 53.1719882,29.7609439 54.1255135,29.8219481 C54.9364491,29.8740517 55.709062,29.7397825 56.437952,29.3319145 C57.4968245,28.7395539 57.5832905,26.7833999 56.6182043,25.8859984 C55.8528519,25.1740496 54.920528,24.7406599 54.0029451,24.2872488 C53.0491398,23.8158765 52.1589988,23.2524779 51.4813523,22.4318017 C50.6501754,21.4248727 50.3612556,20.2641131 50.6540356,18.9616639 C50.9495359,17.6469938 51.7343297,16.7282708 52.863387,16.0603851 C53.5302527,15.665878 54.2725836,15.5124075 55.0264953,15.490746 C56.3056229,15.4539035 57.5374273,15.6938999 58.6511636,16.3624658 C58.7996538,16.4515919 58.9501441,16.6413049 58.9800662,16.8061162 C59.1108751,17.5265655 59.2043015,18.2542554 59.2911675,18.9817452 C59.3016482,19.0682112 59.2091819,19.225642 59.1304365,19.2530438 C58.9128216,19.328949 58.6788455,19.3743721 58.4483697,19.3922334 C58.2082533,19.4109947 58.0827247,19.2901064 58.0313012,19.0285084 C57.9186534,18.4556492 57.7778638,17.8940107 57.416599,17.401657 C56.8416396,16.6180033 56.0522455,16.4141093 55.1627246,16.5488185 C54.7490162,16.6114828 54.3164666,16.7620131 53.9653625,16.9866285 C53.0161375,17.5939701 53.0637608,19.138556 53.6860634,19.9283501 C54.3066059,20.7158641 55.1659648,21.1423333 56.044825,21.5509613 C57.1026775,22.042855 58.0998059,22.6356756 58.9086413,23.4894141 C59.4374375,24.0476524 59.8172035,24.684296 59.9763545,25.4697298 C60.4495469,27.8046698 58.9292227,29.7849856 57.0689952,30.4416305 C56.7957765,30.5381972 56.5249379,30.6616256 56.2425186,30.7078288 C55.6385372,30.8067756 55.0278554,30.8632994 54.4199537,30.9370645" id="Fill-5" fill="#00BDBA"></path>
                            <path d="M64.1570009,23.1549712 C64.1570009,21.9935916 64.1845028,20.831412 64.1472003,19.6713525 C64.1230386,18.9183609 64.0332325,18.1639492 63.9183046,17.4185581 C63.8413593,16.920304 63.5684206,16.7376915 63.0566255,16.7278708 C62.5472706,16.7182901 62.0375557,16.7282708 61.5280208,16.7224304 C61.1818371,16.7185702 61.0667892,16.57008 61.0730896,16.1637921 C61.0776299,15.8719321 61.1838772,15.7183216 61.5154399,15.710061 C63.136971,15.6701983 64.7581021,15.6112943 66.3793532,15.5555505 C66.9897351,15.534409 67.2169906,15.7499038 67.1976493,16.3700063 C67.1288846,18.5718172 67.0189971,20.773028 66.9954154,22.9753589 C66.9766942,24.727559 67.0566396,26.4811391 67.1041029,28.2337593 C67.1132235,28.5756827 67.1656071,28.9172261 67.2140304,29.2567894 C67.2559333,29.5494094 67.6412997,29.7808853 68.1151122,29.7926261 C68.6124063,29.8050469 69.1109404,29.8120874 69.6078945,29.792226 C69.9382571,29.7790251 70.0587454,29.9436764 70.0691661,30.2324762 C70.0810269,30.5687593 69.9251562,30.7233699 69.5845329,30.7235899 C66.9062893,30.7244899 64.2282058,30.7244899 61.5502023,30.7233699 C61.2059787,30.7233098 61.0749097,30.5952211 61.0730896,30.2722789 C61.0711095,29.9338558 61.1932778,29.8036868 61.5381215,29.7985865 C61.9527499,29.7928061 62.3675983,29.7979064 62.7822667,29.7968264 C63.6850486,29.7945062 63.9718883,29.5333083 64.012311,28.6205858 C64.0928165,26.799721 64.157281,24.9782762 64.2284858,23.1571714 C64.2047442,23.1564313 64.1808626,23.1557113 64.1570009,23.1549712" id="Fill-6" fill="#00BDBA"></path>
                            <path d="M62.9668194,9.75559301 C62.844691,8.59165325 63.6251845,7.7956987 64.5030247,7.47353663 C65.5072935,7.10495137 66.5188828,7.1476543 67.2971561,7.96681043 C67.7959703,8.49186641 67.9895836,9.19117433 67.7433467,9.92680474 C67.3024165,11.243995 66.3198692,11.9176012 64.9364143,11.7720712 C64.1186183,11.6861653 63.3726472,11.3829045 63.0956282,10.4832229 C63.0236233,10.2495269 63.0081422,9.99858966 62.9668194,9.75559301" id="Fill-7" fill="#00BDBA"></path>
                            <path d="M79.6377818,39.378863 C80.4714989,39.9825244 80.8157625,40.896747 81.4314847,41.757986 C80.9184495,41.757986 80.5138618,41.7667066 80.1102342,41.7492454 C80.0425895,41.7463652 79.9683244,41.6378378 79.9165609,41.5644728 C79.5262541,41.0115149 79.1394076,40.4559968 78.7537612,39.8995187 C78.532066,39.5795167 78.2276652,39.4618687 77.8433788,39.4732094 C77.6165433,39.4798499 77.5286572,39.5445343 77.5351777,39.7806705 C77.5491187,40.3013862 77.539258,40.8227019 77.539258,41.3436376 C77.539258,41.4703663 77.539258,41.597015 77.539258,41.7660866 C77.1934143,41.7660866 76.8875933,41.7829877 76.5858926,41.7546258 C76.5064072,41.7470853 76.3778784,41.5997952 76.3773184,41.5160494 C76.3646775,39.8344742 76.3638174,38.152859 76.3775984,36.4714037 C76.3781584,36.3787574 76.5265886,36.2066856 76.6046739,36.2075857 C77.6917684,36.2196665 78.7810231,36.2208066 79.8642173,36.299332 C80.4549378,36.3422949 80.9232699,36.9626174 80.9428312,37.5542579 C80.9759935,38.5572267 80.7220961,38.9246719 79.7557699,39.276476 C79.7265679,39.2871367 79.7051864,39.3192189 79.6377818,39.378863 Z M77.539538,37.1973535 C77.539538,37.5794797 77.5528589,37.9084422 77.5352377,38.2360247 C77.5213367,38.4961625 77.6480654,38.5712276 77.8737209,38.5603269 C78.3325523,38.5380454 78.7919638,38.5216042 79.2500352,38.489522 C79.5518759,38.4682606 79.7688508,38.2020623 79.7804916,37.8690795 C79.7912523,37.5594183 79.5573163,37.2136746 79.2810373,37.2034739 C78.7180388,37.1828325 78.1537401,37.1973535 77.539538,37.1973535 Z" id="Fill-8" fill="#1A1B1B"></path>
                            <path d="M73.3976142,39.7481883 C72.9895662,39.7481883 72.6032397,39.7481883 72.1967719,39.7481883 C72.1967719,39.4249661 72.1967719,39.1347863 72.1967719,38.795003 C72.942223,38.795003 73.673053,38.7890026 74.4036431,38.8052637 C74.4699676,38.8068038 74.5869957,38.9509737 74.5889358,39.0311992 C74.6045769,39.6469214 74.6084371,40.2634436 74.5879557,40.8789458 C74.5840555,40.9947937 74.4817085,41.1457041 74.3798815,41.2139087 C73.2989674,41.9393584 71.745861,42.2339986 70.4968954,41.406962 C69.9409173,41.0388367 69.6848197,40.4948795 69.4961868,39.9008188 C69.3023535,39.2900169 69.3512769,38.6800751 69.4828659,38.0547122 C69.659078,37.2178149 70.5327778,36.3513755 71.3769357,36.1775436 C71.9371541,36.0621157 72.476571,36.066196 73.0248286,36.1935847 C73.7170361,36.3543157 74.1867282,36.7797249 74.4470061,37.4286093 C74.5382323,37.6563049 74.4872088,37.7950945 74.1723673,37.8502582 C73.700995,37.9327639 73.3905737,37.9527653 73.058851,37.4586514 C72.7158274,36.9479364 72.0638228,37.00022 71.5041644,37.2065341 C71.0296719,37.3815461 70.7469725,37.7682726 70.6546262,38.2485655 C70.5450187,38.8188646 70.5381582,39.3946241 70.7507728,39.9602428 C71.0204313,40.677632 71.8523483,41.0883401 72.5960992,40.8423833 C72.6518231,40.823902 72.7029066,40.7904397 72.7589904,40.7735586 C73.423756,40.5746049 73.4798798,40.4908592 73.3976142,39.7481883" id="Fill-9" fill="#1A1B1B"></path>
                            <path d="M87.9323502,39.0627813 C87.9910342,39.7264268 87.8049014,40.3690308 87.3909531,40.9424501 C87.0027465,41.480047 86.4346475,41.7525856 85.8129049,41.8634332 C84.6545456,42.0700474 83.3142737,41.6657997 82.8091591,40.4359754 C82.3249859,39.2573747 82.4036713,37.2973003 83.7082607,36.504286 C84.3374838,36.1218598 85.01065,36.0147125 85.7441402,36.1334806 C86.5792175,36.2687099 87.1870591,36.6916188 87.6052078,37.4125682 C87.8941876,37.9109224 87.9577519,38.4557797 87.9323502,39.0627813 Z M86.7806713,39.0738421 C86.7446088,38.0811341 86.4327674,37.29214 85.5555673,37.116888 C84.8285375,36.971758 84.1015077,37.3440835 83.8672516,38.0446316 C83.6741984,38.6220711 83.667958,39.2163718 83.8397497,39.8187731 C83.9972405,40.371691 84.3535849,40.7188948 84.8736606,40.852364 C85.3819554,40.9826529 85.8877501,40.8926667 86.2721564,40.4818386 C86.6657434,40.0612697 86.7420486,39.525253 86.7806713,39.0738421 Z" id="Fill-10" fill="#1A1B1B"></path>
                            <path d="M92.8950703,36.2096258 C93.2946176,36.2096258 93.635481,36.2096258 93.9946056,36.2096258 C94.0069664,36.3018721 94.0266878,36.3806375 94.0268078,36.4593229 C94.0270278,37.6315232 94.0332683,38.8037436 94.0207274,39.9758839 C94.0074065,41.2280297 93.2668357,41.8406517 92.0934953,41.8949554 C91.7218499,41.9121366 91.3394237,41.8680336 90.9732786,41.7948885 C90.1615429,41.6326174 89.6644289,41.1026811 89.6318866,40.2917455 C89.5778629,38.9474534 89.6172056,37.599321 89.6172056,36.2229067 C89.9657295,36.2229067 90.322694,36.2229067 90.7106006,36.2229067 C90.7183211,36.3754772 90.731302,36.5144267 90.731802,36.6536762 C90.7348622,37.7075685 90.7582238,38.7618407 90.7305019,39.8149329 C90.7033401,40.852364 91.694968,41.1128818 92.4314585,40.7688982 C92.7938233,40.5995466 92.8805693,40.2474625 92.8849296,39.889758 C92.8979104,38.8005034 92.8929701,37.7111287 92.8950703,36.621754 C92.8952503,36.4943053 92.8950703,36.3668566 92.8950703,36.2096258" id="Fill-11" fill="#1A1B1B"></path>
                            <path d="M97.0888176,41.7440851 C96.6829898,41.7440851 96.3331659,41.7440851 95.9634005,41.7440851 C95.95574,41.6177164 95.9441192,41.5141893 95.9439392,41.4106022 C95.9428191,39.8003519 95.9519397,38.1901015 95.9356586,36.5800312 C95.9324384,36.2589092 96.0346654,36.1776636 96.3402063,36.1870043 C97.0854174,36.2094058 97.8321686,36.1857642 98.5775597,36.2058255 C99.5200442,36.2311673 100.059461,36.7053398 100.225353,37.6175223 C100.376163,38.445699 99.9950368,39.2438737 99.1971021,39.5260531 C98.7667726,39.6782835 98.2685185,39.6591822 97.7995263,39.6761234 C97.0892177,39.7018051 97.0888176,39.6864441 97.0888176,40.4093336 C97.0888176,40.8451035 97.0888176,41.2806533 97.0888176,41.7440851 Z M97.1135993,37.1310089 C97.1135993,37.7241696 97.1135993,38.2017823 97.1135993,38.7414793 C97.5964924,38.7034367 98.0531837,38.6856355 98.5044946,38.6258714 C98.8126358,38.5848886 98.991568,38.371814 99.0212301,38.0573724 C99.050072,37.7497913 99.0228702,37.4053677 98.684847,37.3274624 C98.1826126,37.2116945 97.6581166,37.1939933 97.1135993,37.1310089 Z" id="Fill-12" fill="#1A1B1B"></path>
                            <g id="Fill-238">
                                <use fill="black" fill-opacity="1" filter="url(#filter-2)" xlink:href="#path-1"></use>
                                <use fill="#333333" fill-rule="evenodd" xlink:href="#path-1"></use>
                            </g>
                        </g>
                    </g>
                </g>
            </g>
        </g>
    </g>
</svg>